<svg xmlns="http://www.w3.org/2000/svg" viewBox="0 0 331.88 331.5"><defs><style>.cls-1{fill:#e52421;}.cls-2{fill:#8fb8ee;stroke:#8fb8ee;stroke-miterlimit:10;}.cls-3{fill:red;}.cls-4{fill:#cdf1ff;}</style></defs><title>Fichier 1</title><g id="Calque_2" data-name="Calque 2"><g id="Calque_1-2" data-name="Calque 1"><circle class="cls-1" cx="291.26" cy="221" r="35.25"/><path class="cls-2" d="M27.81,4A23.43,23.43,0,0,0,4.38,27.43V331h327V253.47a146.17,146.17,0,0,1-270-77.63v-1C61.91,96.58,127.77,30.48,206,29.68a145.73,145.73,0,0,1,60.69,12.47,41.48,41.48,0,0,1,24.57,37.93V80a22,22,0,0,0,22,22h0a18.13,18.13,0,0,0,18.13-18.13h0V42h0a38,38,0,0,0-38-38H27.81Z"/><circle class="cls-2" cx="311.32" cy="129.19" r="20.06"/><circle class="cls-3" cx="286.88" cy="217" r="35.25"/><path class="cls-4" d="M23.44,0A23.43,23.43,0,0,0,0,23.42H0V327H327V249.47A146.17,146.17,0,0,1,57,171.84v-1c.54-78.23,66.4-144.33,144.63-145.13A145.68,145.68,0,0,1,262.3,38.15a41.48,41.48,0,0,1,24.57,37.93V76a22,22,0,0,0,22,22h0A18.13,18.13,0,0,0,327,79.87h0V38h0A38,38,0,0,0,289,0H23.44Z"/><circle class="cls-4" cx="306.94" cy="125.19" r="20.06"/></g></g></svg>